solid OpenSCAD_Model
  facet normal 1 -0 0
    outer loop
      vertex 9 -9 1
      vertex 9 9 -1
      vertex 9 9 1
    endloop
  endfacet
  facet normal 1 0 0
    outer loop
      vertex 9 9 -1
      vertex 9 -9 1
      vertex 9 -9 -1
    endloop
  endfacet
  facet normal 0 0 1
    outer loop
      vertex 9 9 1
      vertex 7.2 0 1
      vertex 9 -9 1
    endloop
  endfacet
  facet normal 0 0 1
    outer loop
      vertex 9 9 1
      vertex 3.6 6.23538 1
      vertex 7.2 0 1
    endloop
  endfacet
  facet normal 0 0 1
    outer loop
      vertex 9 9 1
      vertex -3.6 6.23538 1
      vertex 3.6 6.23538 1
    endloop
  endfacet
  facet normal 0 0 1
    outer loop
      vertex -3.6 6.23538 1
      vertex -9 9 1
      vertex -7.2 0 1
    endloop
  endfacet
  facet normal -0 0 1
    outer loop
      vertex -9 9 1
      vertex -3.6 6.23538 1
      vertex 9 9 1
    endloop
  endfacet
  facet normal -0 0 1
    outer loop
      vertex 3.6 -6.23538 1
      vertex 9 -9 1
      vertex 7.2 0 1
    endloop
  endfacet
  facet normal -0 0 1
    outer loop
      vertex -3.6 -6.23538 1
      vertex 9 -9 1
      vertex 3.6 -6.23538 1
    endloop
  endfacet
  facet normal 0 0 1
    outer loop
      vertex -3.6 -6.23538 1
      vertex -9 -9 1
      vertex 9 -9 1
    endloop
  endfacet
  facet normal 0 0 1
    outer loop
      vertex -7.2 0 1
      vertex -9 -9 1
      vertex -3.6 -6.23538 1
    endloop
  endfacet
  facet normal 0 0 1
    outer loop
      vertex -9 -9 1
      vertex -7.2 0 1
      vertex -9 9 1
    endloop
  endfacet
  facet normal 0 0 -1
    outer loop
      vertex 9 -9 -1
      vertex 7.2 0 -1
      vertex 9 9 -1
    endloop
  endfacet
  facet normal 0 0 -1
    outer loop
      vertex 9 -9 -1
      vertex 3.6 -6.23538 -1
      vertex 7.2 0 -1
    endloop
  endfacet
  facet normal 0 0 -1
    outer loop
      vertex 9 -9 -1
      vertex -3.6 -6.23538 -1
      vertex 3.6 -6.23538 -1
    endloop
  endfacet
  facet normal -0 0 -1
    outer loop
      vertex -3.6 -6.23538 -1
      vertex -9 -9 -1
      vertex -7.2 0 -1
    endloop
  endfacet
  facet normal 0 0 -1
    outer loop
      vertex -9 -9 -1
      vertex -3.6 -6.23538 -1
      vertex 9 -9 -1
    endloop
  endfacet
  facet normal 0 0 -1
    outer loop
      vertex 3.6 6.23538 -1
      vertex 9 9 -1
      vertex 7.2 0 -1
    endloop
  endfacet
  facet normal 0 0 -1
    outer loop
      vertex -3.6 6.23538 -1
      vertex 9 9 -1
      vertex 3.6 6.23538 -1
    endloop
  endfacet
  facet normal 0 0 -1
    outer loop
      vertex -3.6 6.23538 -1
      vertex -9 9 -1
      vertex 9 9 -1
    endloop
  endfacet
  facet normal 0 0 -1
    outer loop
      vertex -7.2 0 -1
      vertex -9 9 -1
      vertex -3.6 6.23538 -1
    endloop
  endfacet
  facet normal 0 0 -1
    outer loop
      vertex -9 9 -1
      vertex -7.2 0 -1
      vertex -9 -9 -1
    endloop
  endfacet
  facet normal -1 0 0
    outer loop
      vertex -9 -9 -1
      vertex -9 9 1
      vertex -9 9 -1
    endloop
  endfacet
  facet normal -1 -0 0
    outer loop
      vertex -9 9 1
      vertex -9 -9 -1
      vertex -9 -9 1
    endloop
  endfacet
  facet normal 0 1 -0
    outer loop
      vertex 9 9 -1
      vertex -9 9 1
      vertex 9 9 1
    endloop
  endfacet
  facet normal 0 1 0
    outer loop
      vertex -9 9 1
      vertex 9 9 -1
      vertex -9 9 -1
    endloop
  endfacet
  facet normal 0 -1 0
    outer loop
      vertex -9 -9 -1
      vertex 9 -9 1
      vertex -9 -9 1
    endloop
  endfacet
  facet normal 0 -1 -0
    outer loop
      vertex 9 -9 1
      vertex -9 -9 -1
      vertex 9 -9 -1
    endloop
  endfacet
  facet normal 0 1 -0
    outer loop
      vertex 3.6 -6.23538 -1
      vertex -3.6 -6.23538 1
      vertex 3.6 -6.23538 1
    endloop
  endfacet
  facet normal 0 1 0
    outer loop
      vertex -3.6 -6.23538 1
      vertex 3.6 -6.23538 -1
      vertex -3.6 -6.23538 -1
    endloop
  endfacet
  facet normal -0.866025 0.5 0
    outer loop
      vertex 3.6 -6.23538 -1
      vertex 7.2 0 1
      vertex 7.2 0 -1
    endloop
  endfacet
  facet normal -0.866025 0.5 0
    outer loop
      vertex 7.2 0 1
      vertex 3.6 -6.23538 -1
      vertex 3.6 -6.23538 1
    endloop
  endfacet
  facet normal 0 -1 0
    outer loop
      vertex -3.6 6.23538 -1
      vertex 3.6 6.23538 1
      vertex -3.6 6.23538 1
    endloop
  endfacet
  facet normal 0 -1 -0
    outer loop
      vertex 3.6 6.23538 1
      vertex -3.6 6.23538 -1
      vertex 3.6 6.23538 -1
    endloop
  endfacet
  facet normal -0.866025 -0.5 0
    outer loop
      vertex 7.2 0 -1
      vertex 3.6 6.23538 1
      vertex 3.6 6.23538 -1
    endloop
  endfacet
  facet normal -0.866025 -0.5 0
    outer loop
      vertex 3.6 6.23538 1
      vertex 7.2 0 -1
      vertex 7.2 0 1
    endloop
  endfacet
  facet normal 0.866025 -0.5 0
    outer loop
      vertex -7.2 0 1
      vertex -3.6 6.23538 -1
      vertex -3.6 6.23538 1
    endloop
  endfacet
  facet normal 0.866025 -0.5 0
    outer loop
      vertex -3.6 6.23538 -1
      vertex -7.2 0 1
      vertex -7.2 0 -1
    endloop
  endfacet
  facet normal 0.866025 0.5 0
    outer loop
      vertex -3.6 -6.23538 1
      vertex -7.2 0 -1
      vertex -7.2 0 1
    endloop
  endfacet
  facet normal 0.866025 0.5 0
    outer loop
      vertex -7.2 0 -1
      vertex -3.6 -6.23538 1
      vertex -3.6 -6.23538 -1
    endloop
  endfacet
endsolid OpenSCAD_Model
