solid OpenSCAD_Model
  facet normal 1 -0 0
    outer loop
      vertex 5.5 -5.5 1
      vertex 5.5 5.5 -1
      vertex 5.5 5.5 1
    endloop
  endfacet
  facet normal 1 0 0
    outer loop
      vertex 5.5 5.5 -1
      vertex 5.5 -5.5 1
      vertex 5.5 -5.5 -1
    endloop
  endfacet
  facet normal 0 0 1
    outer loop
      vertex 5.5 5.5 1
      vertex 3.5 0 1
      vertex 5.5 -5.5 1
    endloop
  endfacet
  facet normal 0 0 1
    outer loop
      vertex 5.5 5.5 1
      vertex 1.75 3.03109 1
      vertex 3.5 0 1
    endloop
  endfacet
  facet normal 0 0 1
    outer loop
      vertex 5.5 5.5 1
      vertex -1.75 3.03109 1
      vertex 1.75 3.03109 1
    endloop
  endfacet
  facet normal 0 0 1
    outer loop
      vertex -1.75 3.03109 1
      vertex -5.5 5.5 1
      vertex -3.5 0 1
    endloop
  endfacet
  facet normal -0 0 1
    outer loop
      vertex -5.5 5.5 1
      vertex -1.75 3.03109 1
      vertex 5.5 5.5 1
    endloop
  endfacet
  facet normal -0 0 1
    outer loop
      vertex 1.75 -3.03109 1
      vertex 5.5 -5.5 1
      vertex 3.5 0 1
    endloop
  endfacet
  facet normal -0 0 1
    outer loop
      vertex -1.75 -3.03109 1
      vertex 5.5 -5.5 1
      vertex 1.75 -3.03109 1
    endloop
  endfacet
  facet normal 0 0 1
    outer loop
      vertex -1.75 -3.03109 1
      vertex -5.5 -5.5 1
      vertex 5.5 -5.5 1
    endloop
  endfacet
  facet normal 0 0 1
    outer loop
      vertex -3.5 0 1
      vertex -5.5 -5.5 1
      vertex -1.75 -3.03109 1
    endloop
  endfacet
  facet normal 0 0 1
    outer loop
      vertex -5.5 -5.5 1
      vertex -3.5 0 1
      vertex -5.5 5.5 1
    endloop
  endfacet
  facet normal 0 0 -1
    outer loop
      vertex 5.5 -5.5 -1
      vertex 3.5 0 -1
      vertex 5.5 5.5 -1
    endloop
  endfacet
  facet normal 0 0 -1
    outer loop
      vertex 5.5 -5.5 -1
      vertex 1.75 -3.03109 -1
      vertex 3.5 0 -1
    endloop
  endfacet
  facet normal 0 0 -1
    outer loop
      vertex 5.5 -5.5 -1
      vertex -1.75 -3.03109 -1
      vertex 1.75 -3.03109 -1
    endloop
  endfacet
  facet normal -0 0 -1
    outer loop
      vertex -1.75 -3.03109 -1
      vertex -5.5 -5.5 -1
      vertex -3.5 0 -1
    endloop
  endfacet
  facet normal 0 0 -1
    outer loop
      vertex -5.5 -5.5 -1
      vertex -1.75 -3.03109 -1
      vertex 5.5 -5.5 -1
    endloop
  endfacet
  facet normal 0 0 -1
    outer loop
      vertex 1.75 3.03109 -1
      vertex 5.5 5.5 -1
      vertex 3.5 0 -1
    endloop
  endfacet
  facet normal 0 0 -1
    outer loop
      vertex -1.75 3.03109 -1
      vertex 5.5 5.5 -1
      vertex 1.75 3.03109 -1
    endloop
  endfacet
  facet normal 0 0 -1
    outer loop
      vertex -1.75 3.03109 -1
      vertex -5.5 5.5 -1
      vertex 5.5 5.5 -1
    endloop
  endfacet
  facet normal 0 0 -1
    outer loop
      vertex -3.5 0 -1
      vertex -5.5 5.5 -1
      vertex -1.75 3.03109 -1
    endloop
  endfacet
  facet normal 0 0 -1
    outer loop
      vertex -5.5 5.5 -1
      vertex -3.5 0 -1
      vertex -5.5 -5.5 -1
    endloop
  endfacet
  facet normal -1 0 0
    outer loop
      vertex -5.5 -5.5 -1
      vertex -5.5 5.5 1
      vertex -5.5 5.5 -1
    endloop
  endfacet
  facet normal -1 -0 0
    outer loop
      vertex -5.5 5.5 1
      vertex -5.5 -5.5 -1
      vertex -5.5 -5.5 1
    endloop
  endfacet
  facet normal 0 1 -0
    outer loop
      vertex 5.5 5.5 -1
      vertex -5.5 5.5 1
      vertex 5.5 5.5 1
    endloop
  endfacet
  facet normal 0 1 0
    outer loop
      vertex -5.5 5.5 1
      vertex 5.5 5.5 -1
      vertex -5.5 5.5 -1
    endloop
  endfacet
  facet normal 0 -1 0
    outer loop
      vertex -5.5 -5.5 -1
      vertex 5.5 -5.5 1
      vertex -5.5 -5.5 1
    endloop
  endfacet
  facet normal 0 -1 -0
    outer loop
      vertex 5.5 -5.5 1
      vertex -5.5 -5.5 -1
      vertex 5.5 -5.5 -1
    endloop
  endfacet
  facet normal 0 1 -0
    outer loop
      vertex 1.75 -3.03109 -1
      vertex -1.75 -3.03109 1
      vertex 1.75 -3.03109 1
    endloop
  endfacet
  facet normal 0 1 0
    outer loop
      vertex -1.75 -3.03109 1
      vertex 1.75 -3.03109 -1
      vertex -1.75 -3.03109 -1
    endloop
  endfacet
  facet normal -0.866025 0.5 0
    outer loop
      vertex 1.75 -3.03109 -1
      vertex 3.5 0 1
      vertex 3.5 0 -1
    endloop
  endfacet
  facet normal -0.866025 0.5 0
    outer loop
      vertex 3.5 0 1
      vertex 1.75 -3.03109 -1
      vertex 1.75 -3.03109 1
    endloop
  endfacet
  facet normal 0 -1 0
    outer loop
      vertex -1.75 3.03109 -1
      vertex 1.75 3.03109 1
      vertex -1.75 3.03109 1
    endloop
  endfacet
  facet normal 0 -1 -0
    outer loop
      vertex 1.75 3.03109 1
      vertex -1.75 3.03109 -1
      vertex 1.75 3.03109 -1
    endloop
  endfacet
  facet normal -0.866025 -0.5 0
    outer loop
      vertex 3.5 0 -1
      vertex 1.75 3.03109 1
      vertex 1.75 3.03109 -1
    endloop
  endfacet
  facet normal -0.866025 -0.5 0
    outer loop
      vertex 1.75 3.03109 1
      vertex 3.5 0 -1
      vertex 3.5 0 1
    endloop
  endfacet
  facet normal 0.866025 -0.5 0
    outer loop
      vertex -3.5 0 1
      vertex -1.75 3.03109 -1
      vertex -1.75 3.03109 1
    endloop
  endfacet
  facet normal 0.866025 -0.5 0
    outer loop
      vertex -1.75 3.03109 -1
      vertex -3.5 0 1
      vertex -3.5 0 -1
    endloop
  endfacet
  facet normal 0.866025 0.5 0
    outer loop
      vertex -1.75 -3.03109 1
      vertex -3.5 0 -1
      vertex -3.5 0 1
    endloop
  endfacet
  facet normal 0.866025 0.5 0
    outer loop
      vertex -3.5 0 -1
      vertex -1.75 -3.03109 1
      vertex -1.75 -3.03109 -1
    endloop
  endfacet
endsolid OpenSCAD_Model
